<svg width="24" height="24" viewBox="0 0 24 24" fill="none" xmlns="http://www.w3.org/2000/svg">
<path d="M14.3149 10.1311C13.6297 10.589 12.8241 10.8333 12 10.8333C10.8949 10.8333 9.83513 10.3943 9.05373 9.61295C8.27233 8.83155 7.83334 7.77174 7.83334 6.66667C7.83334 5.84258 8.07771 5.037 8.53555 4.35179C8.99339 3.66659 9.64414 3.13254 10.4055 2.81717C11.1669 2.50181 12.0046 2.41929 12.8129 2.58006C13.6211 2.74084 14.3636 3.13767 14.9463 3.72039C15.529 4.30311 15.9258 5.04554 16.0866 5.85379C16.2474 6.66205 16.1649 7.49982 15.8495 8.26118C15.5341 9.02254 15.0001 9.67329 14.3149 10.1311ZM14.1297 3.47937C13.4993 3.05816 12.7582 2.83334 12 2.83334C10.9833 2.83334 10.0083 3.2372 9.28943 3.95609C8.57054 4.67498 8.16668 5.65001 8.16668 6.66667C8.16668 7.42483 8.3915 8.16597 8.81271 8.79635C9.23392 9.42674 9.83261 9.91807 10.5331 10.2082C11.2335 10.4983 12.0043 10.5743 12.7479 10.4263C13.4915 10.2784 14.1745 9.91335 14.7106 9.37724C15.2467 8.84114 15.6118 8.15811 15.7597 7.41452C15.9076 6.67092 15.8317 5.90017 15.5415 5.19972C15.2514 4.49927 14.7601 3.90058 14.1297 3.47937Z" fill="#217AC0" stroke="#217AC0"/>
<path d="M20.3133 16.2467C20.5427 16.4953 20.669 16.8218 20.6667 17.1601V20.6667C20.6667 21.0203 20.5262 21.3595 20.2762 21.6095C20.0261 21.8596 19.687 22.0001 19.3333 22.0001H4.66668C4.31306 22.0001 3.97392 21.8596 3.72387 21.6095C3.47382 21.3595 3.33334 21.0203 3.33334 20.6667V17.1601C3.33282 16.8209 3.46155 16.4943 3.69335 16.2467M20.3133 16.2467C19.2442 15.1167 17.9559 14.2167 16.527 13.6015C15.0982 12.9864 13.559 12.6691 12.0033 12.6691C10.4477 12.6691 8.90847 12.9864 7.47965 13.6015C6.05083 14.2167 4.76247 15.1167 3.69335 16.2467M20.3133 16.2467L19.9459 16.5858C19.9465 16.5864 19.9471 16.5871 19.9477 16.5878M20.3133 16.2467L19.9501 16.5904C19.9493 16.5895 19.9485 16.5887 19.9477 16.5878M3.69335 16.2467L4.05654 16.5904C4.05688 16.59 4.05721 16.5897 4.05755 16.5893M3.69335 16.2467L4.05834 16.5884C4.05808 16.5887 4.05781 16.589 4.05755 16.5893M4.05755 16.5893C5.07975 15.5092 6.31144 14.6488 7.67736 14.0608C9.04374 13.4725 10.5157 13.1691 12.0033 13.1691C13.491 13.1691 14.963 13.4725 16.3293 14.0608C17.6946 14.6486 18.9258 15.5084 19.9477 16.5878M4.05755 16.5893C3.91318 16.7439 3.83302 16.9477 3.83334 17.1593L3.83335 17.1601L3.83335 20.6667C3.83335 20.8877 3.92114 21.0997 4.07742 21.256C4.2337 21.4123 4.44566 21.5001 4.66668 21.5001H19.3333C19.5544 21.5001 19.7663 21.4123 19.9226 21.256C20.0789 21.0997 20.1667 20.8877 20.1667 20.6667V17.1601V17.1566C20.1681 16.9461 20.0899 16.7429 19.9477 16.5878M19.3333 21.1667H19.8333V20.6667V17.1534V16.9538L19.6959 16.8091C18.7044 15.765 17.5108 14.9336 16.1877 14.3655C14.8647 13.7973 13.4399 13.5044 12 13.5044C10.5601 13.5044 9.13534 13.7973 7.8123 14.3655C6.48926 14.9336 5.29565 15.765 4.30412 16.8091L4.16668 16.9538V17.1534V20.6667V21.1667H4.66668H19.3333Z" fill="#217AC0" stroke="#217AC0"/>
</svg>
