<svg width="18" height="18" viewBox="0 0 18 18" fill="none" xmlns="http://www.w3.org/2000/svg">
<circle cx="9" cy="9" r="9" fill="#FFE3DE"/>
<g clip-path="url(#clip0_501_154)">
<path d="M12.8795 5.82142H11.5134V5.13838C11.5134 5.078 11.4895 5.02009 11.4468 4.97739C11.4041 4.93469 11.3462 4.91071 11.2858 4.91071C11.2254 4.91071 11.1675 4.93469 11.1248 4.97739C11.0821 5.02009 11.0581 5.078 11.0581 5.13838V5.82142H7.87059V5.13838C7.87059 5.078 7.8466 5.02009 7.8039 4.97739C7.76121 4.93469 7.70329 4.91071 7.64291 4.91071C7.58253 4.91071 7.52462 4.93469 7.48192 4.97739C7.43922 5.02009 7.41523 5.078 7.41523 5.13838V5.82142H6.04916C5.74735 5.82178 5.45801 5.94184 5.24459 6.15525C5.03118 6.36866 4.91113 6.658 4.91077 6.95981V12.8795C4.91113 13.1813 5.03118 13.4706 5.24459 13.684C5.45801 13.8974 5.74735 14.0175 6.04916 14.0179H12.8795C13.1814 14.0176 13.4708 13.8976 13.6842 13.6842C13.8977 13.4707 14.0177 13.1813 14.0179 12.8795V6.95981C14.0177 6.65797 13.8977 6.36855 13.6842 6.15511C13.4708 5.94168 13.1814 5.82166 12.8795 5.82142ZM13.5626 12.8795C13.5626 13.2565 13.2566 13.5625 12.8795 13.5625H6.04916C5.67121 13.5625 5.36612 13.2565 5.36612 12.8795V9.00892H13.5626V12.8795ZM13.5626 8.55356H5.36612V6.95981C5.36612 6.58278 5.67121 6.27678 6.04916 6.27678H7.41523V6.95981C7.41523 7.0202 7.43922 7.07811 7.48192 7.12081C7.52462 7.1635 7.58253 7.18749 7.64291 7.18749C7.70329 7.18749 7.76121 7.1635 7.8039 7.12081C7.8466 7.07811 7.87059 7.0202 7.87059 6.95981V6.27678H11.0581V6.95981C11.0581 7.0202 11.0821 7.07811 11.1248 7.12081C11.1675 7.1635 11.2254 7.18749 11.2858 7.18749C11.3462 7.18749 11.4041 7.1635 11.4468 7.12081C11.4895 7.07811 11.5134 7.0202 11.5134 6.95981V6.27678H12.8795C13.2566 6.27678 13.5626 6.58278 13.5626 6.95981V8.55356Z" fill="#FF7561"/>
</g>
<defs>
<clipPath id="clip0_501_154">
<rect width="10.9286" height="10.9286" fill="white" transform="translate(4 4)"/>
</clipPath>
</defs>
</svg>
